# xmcd
#
# Track frame offsets:
#	150
#	19335
#	36759
#	54490
#	72078
#	92099
#	108343
#	124032
#	139717
#	154335
#	174916
#	193284
#	211357
#	230782
#	247811
#
# Disc length: 3550 seconds
#
# Revision: 0
# Processed by: cddbd v1.5.2PL0 Copyright (c) Steve Scherf et al.
# Submitted via: EasyCDDAExtractor 16.1.0.1
#
DISCID=d00ddc0f
DTITLE=群星 - 真女人情歌 CD 1
DYEAR=2012
DGENRE=Pop
TTITLE0=吳雨霏 - 雞蛋愛石頭
TTITLE1=王菀之 - 月亮說
TTITLE2=鄭融 - 紅綠燈
TTITLE3=鄧紫琪 - Where Did You Go
TTITLE4=楊千嬅 - 偷生
TTITLE5=鄧麗欣 - 電燈膽
TTITLE6=官恩娜 - 地平線
TTITLE7=胡杏兒 - 單身旅行
TTITLE8=HotCha - 不愛也是一種愛
TTITLE9=薛凱琪 - 男孩像你
TTITLE10=關淑怡 - 天規
TTITLE11=張柏芝 - 賭愛
TTITLE12=林憶蓮 - 為何他會離開你
TTITLE13=陳慧琳 - 對你太在乎
TTITLE14=傅穎 - 誰羨慕像我這樣強的人
EXTD=
EXTT0=
EXTT1=
EXTT2=
EXTT3=
EXTT4=
EXTT5=
EXTT6=
EXTT7=
EXTT8=
EXTT9=
EXTT10=
EXTT11=
EXTT12=
EXTT13=
EXTT14=
PLAYORDER=
